# xmcd CD database file generated by Grip 2.91
# 
# Track frame offsets:
#       150
#       20513
#       35198
#       51038
#       68200
#       84710
#       104473
#       121985
#       143335
#       162973
# 
# Disc length: 2326 seconds
# 
# Revision: 4
# Processed by: cddbd v1.5.2PL0 Copyright (c) Steve Scherf et al.
# Submitted via: Grip 2.91
# 
DISCID=8409140a
DTITLE=Sertab Erener - SERTAB ERENER
DYEAR=1900
DGENRE=
TTITLE0=Vur Yüreğim
TTITLE1=Yanarım
TTITLE2=Aşk
TTITLE3=Zor Kadın
TTITLE4=Tek Başına
TTITLE5=Makber
TTITLE6=Sarıl Bana
TTITLE7=Yolun Başı
TTITLE8=Sır
TTITLE9=Gece Kraliçesi
EXTD=
EXTT0=
EXTT1=
EXTT2=
EXTT3=
EXTT4=
EXTT5=
EXTT6=
EXTT7=
EXTT8=
EXTT9=
PLAYORDER=
